<?xml version="1.0" encoding="iso-8859-1"?>
<!-- Generator: Adobe Illustrator 19.0.0, SVG Export Plug-In . SVG Version: 6.00 Build 0)  -->
<svg version="1.1" id="Layer_1" xmlns="http://www.w3.org/2000/svg" xmlns:xlink="http://www.w3.org/1999/xlink" x="0px" y="0px"
	 viewBox="0 0 511.999 511.999" style="enable-background:new 0 0 511.999 511.999;" xml:space="preserve">
<path style="fill:#00C3FF;" d="M82.581,375.741H16.516C7.395,375.741,0,368.346,0,359.225V210.58
	c0-9.122,7.395-16.516,16.516-16.516h66.065c9.122,0,16.516,7.395,16.516,16.516v148.645
	C99.097,368.346,91.702,375.741,82.581,375.741z"/>
<path style="fill:#F0C087;" d="M481.46,169.289H330.323v-8.258c0-18.244-14.789-33.032-33.032-33.032h-32.907
	c-21.668,0-42.9,6.089-61.275,17.573L99.097,210.58v148.645l65.232,17.79c16.995,4.635,34.532,6.984,52.148,6.984h108.227
	c15.656,0,29.57-11.794,30.355-27.429c0.447-8.877-3.165-16.868-9.08-22.449c14.403-1.644,25.633-13.731,25.633-28.574
	c0-8.285-3.532-15.705-9.117-20.975c14.403-1.644,25.633-13.731,25.633-28.574c0-15.963-12.941-28.903-28.903-28.903h123.871
	c16.478,0,29.735-13.789,28.862-30.458C511.14,181.009,497.111,169.289,481.46,169.289z"/>
<path style="fill:#00AAF0;" d="M80.617,337.152c2.321-6.342,2.782-13.555,0.306-21.202c-3.604-11.131-13.171-19.862-24.65-22.125
	c-13.103-2.583-25.202,2.588-32.53,11.744c-2.385,2.98-7.228,1.115-7.228-2.701V194.064C7.395,194.064,0,201.458,0,210.58v148.645
	c0,9.122,7.395,16.516,16.516,16.516h66.065c9.122,0,16.516-7.395,16.516-16.516v-16.516H84.432
	C81.548,342.709,79.626,339.86,80.617,337.152z"/>
<circle style="fill:#E4EAF8;" cx="49.548" cy="326.189" r="16.516"/>
<path style="fill:#D5DCED;" d="M57.806,334.451c-9.121,0-16.516-7.395-16.516-16.516c0-2.42,0.549-4.702,1.485-6.773
	c-5.735,2.59-9.743,8.33-9.743,15.031c0,9.121,7.395,16.516,16.516,16.516c6.701,0,12.442-4.008,15.031-9.743
	C62.509,333.901,60.227,334.451,57.806,334.451z"/>
<g>
	<path style="fill:#E6AF78;" d="M371.224,309.676h-45.031c-6.841,0-12.387,5.546-12.387,12.387s5.546,12.387,12.387,12.387h20.071
		c-0.104-0.101-0.178-0.23-0.284-0.33C359.012,332.634,369.356,322.569,371.224,309.676z"/>
	<path style="fill:#E6AF78;" d="M387.74,260.128h-53.289c-6.841,0-12.387,5.546-12.387,12.387s5.546,12.387,12.387,12.387h28.332
		c-0.105-0.102-0.181-0.23-0.287-0.33C375.528,283.086,385.872,273.02,387.74,260.128z"/>
	<path style="fill:#E6AF78;" d="M334.452,202.322c-6.841,0-12.387,5.545-12.387,12.387c0,6.841,5.546,12.387,12.387,12.387h148.65
		c14.555-0.003,26.557-10.774,28.565-24.774L334.452,202.322L334.452,202.322z"/>
	<path style="fill:#E6AF78;" d="M330.323,161.031c0-6.048-1.743-11.641-4.581-16.516h-40.838c-6.841,0-12.387,5.545-12.387,12.387
		c0,6.841,5.546,12.387,12.387,12.387h45.419V161.031z"/>
	<path style="fill:#E6AF78;" d="M216.477,359.225c-17.615,0-35.152-2.348-52.146-6.983l-6.122-1.67
		c-25.149-6.859-42.597-29.702-42.597-55.77v-94.545L99.096,210.58v148.645l65.232,17.79c16.996,4.635,34.534,6.984,52.151,6.984
		h108.224c14.739,0,27.788-10.504,29.94-24.774L216.477,359.225L216.477,359.225z"/>
</g>
<g>
</g>
<g>
</g>
<g>
</g>
<g>
</g>
<g>
</g>
<g>
</g>
<g>
</g>
<g>
</g>
<g>
</g>
<g>
</g>
<g>
</g>
<g>
</g>
<g>
</g>
<g>
</g>
<g>
</g>
</svg>
