<svg id="Layer_1" enable-background="new 0 0 512 512" height="512" viewBox="0 0 512 512" width="512" xmlns="http://www.w3.org/2000/svg"><g><path d="m238.409 94.057c-17.898 0-32.408 14.51-32.408 32.408l-18.257 104.752h101.33l-18.257-70.225v-34.526c0-17.9-14.51-32.409-32.408-32.409z" fill="#edb986"/><g><g fill="#f0cfa3"><path d="m173.594 0c-17.898 0-32.408 14.509-32.408 32.408v198.808h64.815v-198.808c0-17.899-14.509-32.408-32.407-32.408z"/><path d="m262.948 512h88.312v-69.441l49.187-63.474v-151.699l-129.63-7.859-105.127 51.124z"/></g><path d="m238.409 284.343c17.898 0 32.408-14.509 32.408-32.408v-32.408h-91.61c-37.364 0-67.654 30.29-67.654 67.654v91.904l49.188 63.474v69.441h102.208v-108.896-15.317c0-41.63-23.82-79.589-61.305-97.696l-11.9-5.748z" fill="#f7e2c0"/><path d="m368.04 162.131c-17.898 0-32.408 14.51-32.408 32.408l-11.376 16.424 11.376 16.424c0 17.898 14.509 32.408 32.408 32.408 17.898 0 32.408-14.51 32.408-32.408v-32.847c-.001-17.899-14.51-32.409-32.408-32.409z" fill="#edb986"/><path d="m303.224 128.583c-17.898 0-32.408 14.509-32.408 32.408v66.396c0 17.898 14.509 32.408 32.408 32.408 17.898 0 32.408-14.51 32.408-32.408v-66.396c0-17.899-14.509-32.408-32.408-32.408z" fill="#e0a46f"/></g></g></svg>